<mxfile host="app.diagrams.net" modified="2024-02-29T07:36:26.563Z" agent="Mozilla/5.0 (Windows NT 10.0; Win64; x64) AppleWebKit/537.36 (KHTML, like Gecko) Chrome/121.0.0.0 Safari/537.36" etag="Bar6UlfipU5iDgSKACq8" version="23.1.8" type="github">
  <diagram name="Page-1" id="usQvjqCbf2z5VWUwjuGJ">
    <mxGraphModel dx="2150" dy="820" grid="1" gridSize="10" guides="1" tooltips="1" connect="1" arrows="1" fold="1" page="1" pageScale="1" pageWidth="827" pageHeight="1169" math="0" shadow="0">
      <root>
        <mxCell id="0" />
        <mxCell id="1" parent="0" />
        <mxCell id="kKphP6OUzI673sK9Iiju-2" value="" style="rounded=0;whiteSpace=wrap;html=1;" vertex="1" parent="1">
          <mxGeometry x="230" y="50" width="320" height="60" as="geometry" />
        </mxCell>
        <mxCell id="kKphP6OUzI673sK9Iiju-3" value="Library Management&lt;br style=&quot;font-size: 16px;&quot;&gt;System" style="text;html=1;align=center;verticalAlign=middle;whiteSpace=wrap;rounded=0;fontSize=16;" vertex="1" parent="1">
          <mxGeometry x="310" y="50" width="160" height="70" as="geometry" />
        </mxCell>
        <mxCell id="kKphP6OUzI673sK9Iiju-4" value="" style="endArrow=none;html=1;rounded=0;entryX=0;entryY=1;entryDx=0;entryDy=0;" edge="1" parent="1" target="kKphP6OUzI673sK9Iiju-2">
          <mxGeometry width="50" height="50" relative="1" as="geometry">
            <mxPoint x="230" y="930" as="sourcePoint" />
            <mxPoint x="490" y="430" as="targetPoint" />
          </mxGeometry>
        </mxCell>
        <mxCell id="kKphP6OUzI673sK9Iiju-5" value="" style="endArrow=none;html=1;rounded=0;entryX=0;entryY=1;entryDx=0;entryDy=0;" edge="1" parent="1">
          <mxGeometry width="50" height="50" relative="1" as="geometry">
            <mxPoint x="550" y="930" as="sourcePoint" />
            <mxPoint x="550" y="110" as="targetPoint" />
          </mxGeometry>
        </mxCell>
        <mxCell id="kKphP6OUzI673sK9Iiju-6" value="Actor" style="shape=umlActor;verticalLabelPosition=bottom;verticalAlign=top;html=1;outlineConnect=0;" vertex="1" parent="1">
          <mxGeometry x="-30" y="170" width="80" height="120" as="geometry" />
        </mxCell>
        <mxCell id="kKphP6OUzI673sK9Iiju-7" value="Customer" style="text;html=1;align=center;verticalAlign=middle;whiteSpace=wrap;rounded=0;" vertex="1" parent="1">
          <mxGeometry x="20" y="215" width="60" height="30" as="geometry" />
        </mxCell>
        <mxCell id="kKphP6OUzI673sK9Iiju-8" value="Actor" style="shape=umlActor;verticalLabelPosition=bottom;verticalAlign=top;html=1;outlineConnect=0;" vertex="1" parent="1">
          <mxGeometry x="-30" y="360" width="80" height="120" as="geometry" />
        </mxCell>
        <mxCell id="kKphP6OUzI673sK9Iiju-9" value="Librarian" style="text;html=1;align=center;verticalAlign=middle;whiteSpace=wrap;rounded=0;" vertex="1" parent="1">
          <mxGeometry x="30" y="405" width="60" height="30" as="geometry" />
        </mxCell>
        <mxCell id="kKphP6OUzI673sK9Iiju-12" value="Actor" style="shape=umlActor;verticalLabelPosition=bottom;verticalAlign=top;html=1;outlineConnect=0;" vertex="1" parent="1">
          <mxGeometry x="690" y="525" width="80" height="120" as="geometry" />
        </mxCell>
        <mxCell id="kKphP6OUzI673sK9Iiju-13" value="Admin" style="text;html=1;align=center;verticalAlign=middle;whiteSpace=wrap;rounded=0;" vertex="1" parent="1">
          <mxGeometry x="660" y="570" width="60" height="30" as="geometry" />
        </mxCell>
        <mxCell id="kKphP6OUzI673sK9Iiju-14" value="Search Catalog" style="ellipse;whiteSpace=wrap;html=1;" vertex="1" parent="1">
          <mxGeometry x="315" y="150" width="150" height="60" as="geometry" />
        </mxCell>
        <mxCell id="kKphP6OUzI673sK9Iiju-15" value="Return Book" style="ellipse;whiteSpace=wrap;html=1;" vertex="1" parent="1">
          <mxGeometry x="320" y="330" width="150" height="60" as="geometry" />
        </mxCell>
        <mxCell id="kKphP6OUzI673sK9Iiju-16" value="View Account&amp;nbsp;&lt;br&gt;(Holds/Dues)" style="ellipse;whiteSpace=wrap;html=1;" vertex="1" parent="1">
          <mxGeometry x="320" y="410" width="150" height="60" as="geometry" />
        </mxCell>
        <mxCell id="kKphP6OUzI673sK9Iiju-17" value="Apply Filters" style="ellipse;whiteSpace=wrap;html=1;" vertex="1" parent="1">
          <mxGeometry x="250" y="240" width="150" height="60" as="geometry" />
        </mxCell>
        <mxCell id="kKphP6OUzI673sK9Iiju-19" value="Remove Book" style="ellipse;whiteSpace=wrap;html=1;" vertex="1" parent="1">
          <mxGeometry x="360" y="670" width="150" height="60" as="geometry" />
        </mxCell>
        <mxCell id="kKphP6OUzI673sK9Iiju-20" value="Manage Reservations" style="ellipse;whiteSpace=wrap;html=1;" vertex="1" parent="1">
          <mxGeometry x="320" y="760" width="150" height="60" as="geometry" />
        </mxCell>
        <mxCell id="kKphP6OUzI673sK9Iiju-21" value="Manage Inventory" style="ellipse;whiteSpace=wrap;html=1;" vertex="1" parent="1">
          <mxGeometry x="320" y="840" width="150" height="60" as="geometry" />
        </mxCell>
        <mxCell id="kKphP6OUzI673sK9Iiju-22" value="&amp;lt;&amp;lt;include&amp;gt;&amp;gt;" style="text;html=1;align=center;verticalAlign=middle;whiteSpace=wrap;rounded=0;" vertex="1" parent="1">
          <mxGeometry x="365" y="215" width="60" height="30" as="geometry" />
        </mxCell>
        <mxCell id="kKphP6OUzI673sK9Iiju-23" value="" style="endArrow=none;html=1;rounded=0;exitX=1;exitY=0.25;exitDx=0;exitDy=0;" edge="1" parent="1" source="kKphP6OUzI673sK9Iiju-7">
          <mxGeometry width="50" height="50" relative="1" as="geometry">
            <mxPoint x="300" y="440" as="sourcePoint" />
            <mxPoint x="310" y="180" as="targetPoint" />
          </mxGeometry>
        </mxCell>
        <mxCell id="kKphP6OUzI673sK9Iiju-24" value="" style="endArrow=classic;html=1;rounded=0;entryX=0.534;entryY=-0.023;entryDx=0;entryDy=0;entryPerimeter=0;exitX=0.286;exitY=0.969;exitDx=0;exitDy=0;exitPerimeter=0;" edge="1" parent="1" source="kKphP6OUzI673sK9Iiju-14" target="kKphP6OUzI673sK9Iiju-17">
          <mxGeometry width="50" height="50" relative="1" as="geometry">
            <mxPoint x="370" y="310" as="sourcePoint" />
            <mxPoint x="420" y="260" as="targetPoint" />
          </mxGeometry>
        </mxCell>
        <mxCell id="kKphP6OUzI673sK9Iiju-25" value="Add Book" style="ellipse;whiteSpace=wrap;html=1;" vertex="1" parent="1">
          <mxGeometry x="320" y="480" width="150" height="60" as="geometry" />
        </mxCell>
        <mxCell id="kKphP6OUzI673sK9Iiju-28" value="" style="endArrow=none;html=1;rounded=0;exitX=1;exitY=0.25;exitDx=0;exitDy=0;entryX=0;entryY=0.5;entryDx=0;entryDy=0;" edge="1" parent="1" source="kKphP6OUzI673sK9Iiju-7" target="kKphP6OUzI673sK9Iiju-15">
          <mxGeometry width="50" height="50" relative="1" as="geometry">
            <mxPoint x="280" y="520" as="sourcePoint" />
            <mxPoint x="330" y="470" as="targetPoint" />
          </mxGeometry>
        </mxCell>
        <mxCell id="kKphP6OUzI673sK9Iiju-29" value="" style="endArrow=none;html=1;rounded=0;entryX=0;entryY=0.5;entryDx=0;entryDy=0;" edge="1" parent="1" target="kKphP6OUzI673sK9Iiju-16">
          <mxGeometry width="50" height="50" relative="1" as="geometry">
            <mxPoint x="80" y="220" as="sourcePoint" />
            <mxPoint x="330" y="470" as="targetPoint" />
          </mxGeometry>
        </mxCell>
        <mxCell id="kKphP6OUzI673sK9Iiju-30" value="" style="endArrow=none;html=1;rounded=0;exitX=1;exitY=0.5;exitDx=0;exitDy=0;entryX=0;entryY=0.5;entryDx=0;entryDy=0;" edge="1" parent="1" source="kKphP6OUzI673sK9Iiju-9" target="kKphP6OUzI673sK9Iiju-25">
          <mxGeometry width="50" height="50" relative="1" as="geometry">
            <mxPoint x="280" y="520" as="sourcePoint" />
            <mxPoint x="330" y="470" as="targetPoint" />
          </mxGeometry>
        </mxCell>
        <mxCell id="kKphP6OUzI673sK9Iiju-31" value="" style="endArrow=none;html=1;rounded=0;entryX=0;entryY=0.5;entryDx=0;entryDy=0;" edge="1" parent="1" target="kKphP6OUzI673sK9Iiju-39">
          <mxGeometry width="50" height="50" relative="1" as="geometry">
            <mxPoint x="90" y="420" as="sourcePoint" />
            <mxPoint x="330" y="620" as="targetPoint" />
          </mxGeometry>
        </mxCell>
        <mxCell id="kKphP6OUzI673sK9Iiju-32" value="" style="endArrow=none;html=1;rounded=0;entryX=0;entryY=0.5;entryDx=0;entryDy=0;exitX=1;exitY=0.5;exitDx=0;exitDy=0;" edge="1" parent="1" source="kKphP6OUzI673sK9Iiju-9" target="kKphP6OUzI673sK9Iiju-20">
          <mxGeometry width="50" height="50" relative="1" as="geometry">
            <mxPoint x="60" y="710" as="sourcePoint" />
            <mxPoint x="330" y="620" as="targetPoint" />
          </mxGeometry>
        </mxCell>
        <mxCell id="kKphP6OUzI673sK9Iiju-35" value="" style="endArrow=none;html=1;rounded=0;entryX=1;entryY=0.5;entryDx=0;entryDy=0;exitX=0;exitY=0.25;exitDx=0;exitDy=0;" edge="1" parent="1" source="kKphP6OUzI673sK9Iiju-13" target="kKphP6OUzI673sK9Iiju-16">
          <mxGeometry width="50" height="50" relative="1" as="geometry">
            <mxPoint x="390" y="540" as="sourcePoint" />
            <mxPoint x="440" y="490" as="targetPoint" />
          </mxGeometry>
        </mxCell>
        <mxCell id="kKphP6OUzI673sK9Iiju-38" value="" style="endArrow=none;html=1;rounded=0;" edge="1" parent="1">
          <mxGeometry width="50" height="50" relative="1" as="geometry">
            <mxPoint x="230" y="930" as="sourcePoint" />
            <mxPoint x="550" y="930" as="targetPoint" />
          </mxGeometry>
        </mxCell>
        <mxCell id="kKphP6OUzI673sK9Iiju-39" value="Manage Inventory" style="ellipse;whiteSpace=wrap;html=1;" vertex="1" parent="1">
          <mxGeometry x="320" y="570" width="150" height="60" as="geometry" />
        </mxCell>
        <mxCell id="kKphP6OUzI673sK9Iiju-40" value="" style="endArrow=classic;html=1;rounded=0;entryX=0.5;entryY=0;entryDx=0;entryDy=0;exitX=0.5;exitY=1;exitDx=0;exitDy=0;" edge="1" parent="1" source="kKphP6OUzI673sK9Iiju-39" target="kKphP6OUzI673sK9Iiju-19">
          <mxGeometry width="50" height="50" relative="1" as="geometry">
            <mxPoint x="390" y="660" as="sourcePoint" />
            <mxPoint x="380" y="630" as="targetPoint" />
          </mxGeometry>
        </mxCell>
        <mxCell id="kKphP6OUzI673sK9Iiju-41" value="&amp;lt;&amp;lt;include&amp;gt;&amp;gt;" style="text;html=1;align=center;verticalAlign=middle;whiteSpace=wrap;rounded=0;" vertex="1" parent="1">
          <mxGeometry x="425" y="630" width="60" height="30" as="geometry" />
        </mxCell>
        <mxCell id="kKphP6OUzI673sK9Iiju-42" value="" style="endArrow=none;html=1;rounded=0;entryX=0;entryY=0.25;entryDx=0;entryDy=0;exitX=1;exitY=0.5;exitDx=0;exitDy=0;" edge="1" parent="1" source="kKphP6OUzI673sK9Iiju-21" target="kKphP6OUzI673sK9Iiju-13">
          <mxGeometry width="50" height="50" relative="1" as="geometry">
            <mxPoint x="590" y="780" as="sourcePoint" />
            <mxPoint x="570" y="640" as="targetPoint" />
          </mxGeometry>
        </mxCell>
        <mxCell id="kKphP6OUzI673sK9Iiju-43" value="" style="endArrow=none;html=1;rounded=0;exitX=1;exitY=0.5;exitDx=0;exitDy=0;entryX=0;entryY=0.25;entryDx=0;entryDy=0;" edge="1" parent="1" source="kKphP6OUzI673sK9Iiju-20" target="kKphP6OUzI673sK9Iiju-13">
          <mxGeometry width="50" height="50" relative="1" as="geometry">
            <mxPoint x="450" y="680" as="sourcePoint" />
            <mxPoint x="500" y="630" as="targetPoint" />
          </mxGeometry>
        </mxCell>
      </root>
    </mxGraphModel>
  </diagram>
</mxfile>
